<svg width="19" height="19" fill="none" xmlns="http://www.w3.org/2000/svg"><path d="M9.5 7.027A2.479 2.479 0 0 0 7.027 9.5 2.479 2.479 0 0 0 9.5 11.973 2.479 2.479 0 0 0 11.973 9.5 2.479 2.479 0 0 0 9.5 7.027ZM16.918 9.5c0-1.024.01-2.039-.048-3.061-.058-1.188-.329-2.242-1.197-3.11-.87-.87-1.922-1.14-3.11-1.197-1.024-.057-2.039-.048-3.061-.048-1.024 0-2.04-.01-3.062.048-1.187.058-2.241.328-3.11 1.197-.87.87-1.139 1.922-1.196 3.11-.058 1.024-.048 2.039-.048 3.061 0 1.023-.01 2.04.048 3.062.057 1.187.328 2.241 1.197 3.11.87.87 1.922 1.139 3.11 1.196 1.024.058 2.039.048 3.06.048 1.025 0 2.04.01 3.062-.048 1.188-.057 2.242-.328 3.11-1.197.87-.87 1.14-1.922 1.197-3.11.06-1.022.048-2.037.048-3.06ZM9.5 13.306A3.8 3.8 0 0 1 5.694 9.5 3.8 3.8 0 0 1 9.5 5.695 3.8 3.8 0 0 1 13.306 9.5 3.8 3.8 0 0 1 9.5 13.306Zm3.961-6.879a.888.888 0 1 1 0-1.777.888.888 0 1 1 0 1.777Z" fill="#7E838C"/></svg>