<svg width="43" height="66" fill="none" xmlns="http://www.w3.org/2000/svg"><path d="M22.79 61.993c-1.746-5.274 4.79-18.65 8.277-24.678-5.634 9.155-8.495 15.588-9.712 20.001-1.679 6.09 4.92 7.643 7.73 1.987a25.677 25.677 0 0 0 1.212-2.836l-3.786 1.508c-1.129 2.21-2.951 3.6-3.721 4.018Z" fill="url(#a)"/><path d="M22.791 61.995c1.381-.76 3.02-2.605 3.71-4 1.632-.633 2.038-.734 2.351-.797-.89 2.164-2.222 4.044-3.387 5.241-.876.9-2.28.748-2.674-.444Z" fill="url(#b)"/><path d="M41.675 31.047c-1.319-5.037-5.009-6.736-5.2-4.848-1.521 4.281-3.93 8.457-4.945 10.01-8.403 15.967-4.65 20.839-2.917 21.09 15.168-5.942 15.07-19.998 13.063-26.252Z" fill="url(#c)"/><path d="M18.586 23.118c.724-4.565.293-14.254-6.872-19.977-.445.949-.42 3.783 1.968 9.047l-2.286 3.732C9.26 12.126 5.492 2.383 8.793.168c3.019-1.504 12.426 7.195 9.793 22.95Z" fill="url(#d)"/><path d="M9.347 3.021c.742-.497 2.23-.118 2.478.193-.693 2.484.964 6.95 1.912 9l-1.779 2.93C8.496 7.095 8.543 3.768 9.347 3.022Z" fill="url(#e)"/><path d="M27.462 28.872C28.474 14.44 21.335 4.755 17.64 1.717c17.286 9.655 23.128 23.383 23.888 29.04-2.332-7.945-10.35-4.567-14.066-1.885Z" fill="url(#f)"/><path opacity=".25" d="M38.405 26.361c-3.02-8.619-12.291-16.876-16.55-19.803 5.601 8.282 6.02 17.707 5.664 22.17 4.53-3.052 7.929-3.737 10.886-2.367Z" fill="url(#g)"/><path d="M36.799 26.698c4.145 5.503 8.584 18.828-6.825 28.104 1.68-8.675 5.396-26.44 6.825-28.104Z" fill="url(#h)"/><path d="M28.622 57.298c-3.09-2.961.506-14.963 2.674-20.642-7.417 13.528-9.005 19.904-8.74 22.064 3.735-.383 3.555-.657 6.066-1.422Z" fill="#27569F"/><path d="M16.546 57.924c-.714-10.04 4.075-21.253 6.559-25.605-16.812 7.972-21.482 3.322-21.715 0-3.974 16.953 8.448 24.134 15.156 25.605Z" fill="url(#i)"/><path d="M16.537 56.207c-.19-9.405 4.147-19.834 6.568-23.888-13.325 5.894-18.25 4.828-20.397 2.508-1.819 13.743 8.504 19.959 13.83 21.38Z" fill="url(#j)"/><path d="M1.403 32.43C3.39 25.34 8.41 17.994 12.425 15.145c5.403-1.722 6.33 4.116 6.308 7.282-.816 8.004-4.588 12.685-6.372 13.93-7.2 2.217-10.767-.506-10.958-3.925Z" fill="url(#k)"/><path d="m9.99 17.32 6.274-8.577c2.608 3.978 2.85 10.6 2.467 13.474-.89-9.306-6.137-7.425-8.741-4.897Z" fill="#148CCC"/><defs><linearGradient id="a" x1="25.837" y1="37.315" x2="23.041" y2="65.961" gradientUnits="userSpaceOnUse"><stop stop-color="#1EA99E"/><stop offset=".359" stop-color="#D0FEFA"/><stop offset="1" stop-color="#1EA99E"/></linearGradient><linearGradient id="b" x1="27.877" y1="57.617" x2="22.413" y2="64.728" gradientUnits="userSpaceOnUse"><stop stop-color="#188C83"/><stop offset="1" stop-color="#fff" stop-opacity="0"/></linearGradient><linearGradient id="c" x1="37.744" y1="26.011" x2="28.733" y2="57.271" gradientUnits="userSpaceOnUse"><stop stop-color="#2D63C8"/><stop offset="1" stop-color="#08A7FA"/></linearGradient><linearGradient id="e" x1="9.718" y1="2.835" x2="12.96" y2="13.449" gradientUnits="userSpaceOnUse"><stop stop-color="#ADFFF8"/><stop offset="1" stop-color="#1EA99E"/></linearGradient><linearGradient id="f" x1="29.616" y1="-1.551" x2="39.423" y2="26.344" gradientUnits="userSpaceOnUse"><stop stop-color="#00AFFF"/><stop offset="1" stop-color="#4268D5"/></linearGradient><linearGradient id="g" x1="32.49" y1="16.709" x2="27.504" y2="21.306" gradientUnits="userSpaceOnUse"><stop stop-color="#fff" stop-opacity=".73"/><stop offset="1" stop-color="#fff" stop-opacity="0"/></linearGradient><linearGradient id="h" x1="40.689" y1="42.01" x2="35.344" y2="40.271" gradientUnits="userSpaceOnUse"><stop stop-color="#fff" stop-opacity=".18"/><stop offset="1" stop-color="#fff" stop-opacity="0"/></linearGradient><linearGradient id="i" x1="23.105" y1="32.382" x2="4.51" y2="52.113" gradientUnits="userSpaceOnUse"><stop stop-color="#0D9FF4"/><stop offset="1" stop-color="#2B67CB"/></linearGradient><linearGradient id="j" x1="4.413" y1="46.802" x2="10.876" y2="40.988" gradientUnits="userSpaceOnUse"><stop stop-color="#fff" stop-opacity=".25"/><stop offset="1" stop-color="#fff" stop-opacity="0"/></linearGradient><linearGradient id="k" x1="15.42" y1="15.587" x2="5.518" y2="37.1" gradientUnits="userSpaceOnUse"><stop stop-color="#06AAFC"/><stop offset="1" stop-color="#1B4CAA"/></linearGradient><radialGradient id="d" cx="0" cy="0" r="1" gradientUnits="userSpaceOnUse" gradientTransform="matrix(-4.7929 -9.39484 4.59761 -2.34553 14.221 9.373)"><stop stop-color="#2AAFA4"/><stop offset=".558" stop-color="#D0FDF9"/><stop offset="1" stop-color="#2AAFA4"/></radialGradient></defs></svg>